<svg width="254" height="254" viewBox="0 0 254 254" fill="none" xmlns="http://www.w3.org/2000/svg">
<rect width="254" height="254" fill="#E5E5E5"/>
<circle cx="127" cy="127" r="127" fill="white"/>
<circle cx="142.5" cy="131.5" r="49.5" fill="#0169D9"/>
<path d="M69.2107 210V46.7H132.001C150.094 46.7 165.197 50.38 177.311 57.74C189.577 64.9467 198.777 74.76 204.911 87.18C211.197 99.4467 214.341 113.093 214.341 128.12C214.341 144.68 210.891 159.093 203.991 171.36C197.244 183.627 187.661 193.133 175.241 199.88C162.974 206.627 148.561 210 132.001 210H69.2107ZM168.801 128.12C168.801 115.393 165.504 105.197 158.911 97.53C152.471 89.71 143.501 85.8 132.001 85.8H114.061V170.9H132.001C143.807 170.9 152.854 166.837 159.141 158.71C165.581 150.583 168.801 140.387 168.801 128.12Z" fill="#0169D9"/>
<path d="M83.7192 130.24C83.7192 123.307 84.9992 116.533 87.5592 109.92C90.2259 103.2 94.0659 97.12 99.0792 91.68C104.093 86.24 110.173 81.92 117.319 78.72C124.573 75.4133 132.733 73.76 141.799 73.76C152.679 73.76 162.173 76.0533 170.279 80.64C178.386 85.12 184.413 91.0933 188.359 98.56L164.519 115.52C163.133 111.787 161.106 108.907 158.439 106.88C155.879 104.853 153.053 103.467 149.959 102.72C146.973 101.867 144.039 101.44 141.159 101.44C135.186 101.44 130.279 102.933 126.439 105.92C122.706 108.907 119.933 112.693 118.119 117.28C116.306 121.76 115.399 126.4 115.399 131.2C115.399 136.427 116.413 141.333 118.439 145.92C120.573 150.507 123.559 154.24 127.399 157.12C131.346 159.893 136.039 161.28 141.479 161.28C144.359 161.28 147.293 160.853 150.279 160C153.266 159.04 155.986 157.547 158.439 155.52C160.893 153.493 162.759 150.773 164.039 147.36L189.479 162.56C187.239 168.107 183.506 172.853 178.279 176.8C173.053 180.747 167.133 183.787 160.519 185.92C153.906 187.947 147.346 188.96 140.839 188.96C132.413 188.96 124.679 187.307 117.639 184C110.706 180.587 104.679 176.107 99.5592 170.56C94.5459 164.907 90.6526 158.613 87.8792 151.68C85.1059 144.64 83.7192 137.493 83.7192 130.24Z" fill="white"/>
</svg>
