<svg id="Capa_1" enable-background="new 0 0 512.015 512.015" height="4rem" viewBox="0 0 512.015 512.015" width="4rem" fill="#0169d9"
    xmlns="http://www.w3.org/2000/svg">
    <g>
        <path
            d="m511.929 57.771c-1.451-28.523-22.962-51.839-50.67-56.084-8.543-1.309 13.337-.445-401.401-.691-31.912 0-58.164 25.139-59.773 56.775-.121 2.379-.078-15.129-.078 266.784 0 31.477 25.608 57.085 57.085 57.085h145.708l-15.306 60.749h-15.458c-18.431 0-33.426 14.995-33.426 33.426v15.259h-37.535c-5.523 0-10 4.477-10 10s4.477 10 10 10h309.863c5.522 0 10-4.477 10-10s-4.478-10-10-10h-37.535v-15.259c0-18.431-14.995-33.426-33.426-33.426h-15.457l-15.306-60.749h145.708c31.478 0 57.086-25.608 57.086-57.085 0-3.075.042-264.416-.079-266.784zm-452.071-36.775h392.299c21.974 0 39.851 17.877 39.851 39.851v23.541h-472v-23.542c-.001-21.973 17.876-39.85 39.85-39.85zm75.414 173.988h47.341c5.523 0 10-4.477 10-10s-4.477-10-10-10h-47.341v-12.798c9.805-2.802 26.804-8.988 42.801-21.287 3.749-2.882 9.236-2.339 12.494 1.238 20.43 22.436 46.235 35.563 65.404 42.847-19.168 7.283-44.974 20.41-65.404 42.847-3.257 3.577-8.744 4.121-12.494 1.238-15.997-12.299-32.997-18.485-42.801-21.287zm-20 10.203-95.265-4.132v-32.142l95.265-4.132zm238.132 270.629v15.259h-194.793v-15.259c0-7.403 6.023-13.426 13.426-13.426h167.941c7.404-.001 13.426 6.022 13.426 13.426zm-49.509-33.427h-95.775l15.307-60.749h65.162zm151.027-80.748c-18.87 0-382.159 0-397.829 0-20.449 0-37.085-16.636-37.085-37.085v-33.597h144.066c5.523 0 10-4.477 10-10s-4.477-10-10-10h-144.067v-49.885l104.093 4.515c3.536.724 23.52 5.295 41.783 19.336 11.95 9.187 29.286 7.557 39.471-3.629 18.902-20.759 43.489-32.53 60.787-38.75 16.459-5.918 16.497-29.192 0-35.124-17.298-6.22-41.886-17.992-60.788-38.75-10.203-11.205-27.541-12.799-39.471-3.628-18.127 13.936-38.297 18.606-41.799 19.336l-104.077 4.515v-44.506h472v70.596h-161.65c-5.522 0-10 4.477-10 10s4.478 10 10 10h161.65v44.351c-16.818 0-157.764 0-174.719 0-17.047 0-25.455 8.779-44.788 18.149-18.671 10.096-18.644 36.868.001 46.949 19.235 9.323 27.718 18.149 44.787 18.149h174.719v1.974c.001 20.448-16.635 37.084-37.084 37.084zm37.085-59.059h-153.637c5.342-13.93 5.342-29.318 0-43.247h153.638v43.247zm-209.993-15.742c-4.678-2.529-4.684-9.23-.001-11.763 24.794-13.387 26.939-15.363 34.123-15.706 8.298 13.24 8.298 29.935 0 43.175-7.802-.372-10.204-2.792-34.122-15.706z" />
        <path
            d="m429.583 69.719c3.905 3.905 10.235 3.906 14.143 0l2.886-2.886 2.886 2.886c3.906 3.905 10.236 3.905 14.143 0 3.905-3.905 3.905-10.237 0-14.142l-2.886-2.886 2.886-2.886c3.905-3.905 3.905-10.237 0-14.142s-10.235-3.905-14.143 0l-2.886 2.886-2.886-2.886c-3.906-3.905-10.236-3.905-14.143 0-3.905 3.905-3.905 10.237 0 14.142l2.886 2.886-2.886 2.886c-3.906 3.906-3.906 10.237 0 14.142z" />
        <path
            d="m376.639 72.649h22.163c5.522 0 10-4.477 10-10s-4.478-10-10-10h-22.163c-5.522 0-10 4.477-10 10s4.478 10 10 10z" />
        <path
            d="m206.027 271.155c-6.101-1.229-11.95 3.438-11.95 9.8 0 5.487 4.449 10 10 10 5.599 0 10-4.565 10-10 0-4.683-3.261-8.824-8.05-9.8z" />
    </g>
</svg>